<?xml version="1.0" encoding="UTF-8"?>
<svg xmlns="http://www.w3.org/2000/svg" xmlns:xlink="http://www.w3.org/1999/xlink" width="740.2pt" height="347.4pt" viewBox="0 0 740.2 347.4" version="1.1">
<defs>
<clipPath id="clip1">
  <path d="M 0 0 L 740.199219 0 L 740.199219 347.398438 L 0 347.398438 Z M 0 0 "/>
</clipPath>
</defs>
<g id="surface1">
<g clip-path="url(#clip1)" clip-rule="nonzero">
<path style="fill-rule:evenodd;fill:rgb(0%,0%,0%);fill-opacity:1;stroke-width:2;stroke-linecap:butt;stroke-linejoin:miter;stroke:rgb(0%,0%,0%);stroke-opacity:1;stroke-miterlimit:4;" d="M 1.132813 1.929688 L 7401.757813 1.929688 L 7401.757813 3473.335938 L 1.132813 3473.335938 Z M 1.132813 1.929688 " transform="matrix(0.1,0,0,-0.1,0,347.4)"/>
</g>
<path style=" stroke:none;fill-rule:evenodd;fill:rgb(100%,100%,100%);fill-opacity:1;" d="M 202.429688 177.484375 C 202.375 188.167969 204.949219 196.523438 210.195313 202.601563 C 215.417969 208.65625 221.578125 211.679688 228.621094 211.679688 C 233.332031 211.679688 237.429688 210.394531 240.910156 207.796875 C 244.394531 205.226563 247.285156 200.78125 249.640625 194.515625 L 252.078125 196.070313 C 250.980469 203.246094 247.792969 209.78125 242.519531 215.644531 C 237.214844 221.535156 230.601563 224.480469 222.675781 224.480469 C 214.027344 224.480469 206.632813 221.132813 200.503906 214.414063 C 194.34375 207.691406 191.289063 198.640625 191.289063 187.285156 C 191.289063 174.992188 194.421875 165.40625 200.742188 158.550781 C 207.035156 151.667969 214.9375 148.214844 224.46875 148.214844 C 232.53125 148.214844 239.144531 150.867188 244.3125 156.195313 C 249.480469 161.496094 252.078125 168.59375 252.078125 177.484375 Z M 162.757813 162.851563 L 162.757813 162.964844 L 160.890625 162.964844 C 160.945313 160.410156 160.851563 157.6875 160.554688 154.957031 C 159.949219 149.324219 158.488281 143.664063 157.882813 140.171875 C 157.273438 136.679688 157.515625 135.359375 157.6875 134.007813 C 157.855469 132.660156 157.953125 131.285156 158.171875 129.433594 C 158.390625 127.582031 158.730469 125.253906 158.902344 122.820313 C 159.074219 120.386719 159.074219 117.847656 159.097656 115.8125 C 159.121094 113.777344 159.171875 112.242188 159.851563 110.8125 C 160.53125 109.386719 161.84375 108.0625 164.640625 107.695313 C 167.4375 107.332031 171.722656 107.921875 173.984375 107.664063 C 176.246094 107.402344 176.492188 106.292969 175.902344 105.710938 C 175.3125 105.128906 173.886719 105.074219 173.050781 104.671875 C 172.210938 104.269531 171.957031 103.515625 172.03125 102.847656 C 172.101563 102.179688 172.503906 101.597656 174.210938 100.988281 C 175.917969 100.378906 178.933594 99.746094 181.292969 101 C 183.648438 102.257813 185.351563 105.40625 185.59375 108.433594 C 185.835938 111.460938 184.621094 114.371094 183.144531 116.054688 C 181.664063 117.734375 179.921875 118.1875 178.515625 118.335938 C 177.109375 118.484375 176.039063 118.324219 174.945313 118.058594 C 173.851563 117.796875 172.730469 117.425781 172.027344 117.347656 C 171.324219 117.265625 171.03125 117.480469 170.933594 117.953125 C 170.835938 118.429688 170.933594 119.171875 171.175781 119.753906 C 171.417969 120.335938 171.808594 120.757813 172.636719 121.128906 C 173.460938 121.5 174.726563 121.816406 176.304688 122.53125 C 177.886719 123.246094 179.78125 124.355469 181.386719 125.96875 C 182.988281 127.582031 184.300781 129.699219 185.371094 132.554688 C 186.441406 135.410156 187.269531 139.007813 187.679688 141.28125 C 188.09375 143.558594 188.09375 144.507813 188.070313 145.277344 C 188.046875 146.042969 187.996094 146.625 188.289063 146.015625 C 188.578125 145.410156 189.210938 143.609375 189.648438 141.097656 C 190.085938 138.585938 190.332031 135.359375 190.402344 133.214844 C 190.476563 131.074219 190.378906 130.015625 191.421875 128.136719 C 192.46875 126.257813 194.65625 123.5625 195.335938 120.230469 C 196.019531 116.898438 195.191406 112.929688 193.636719 109.675781 C 192.078125 106.421875 189.796875 103.882813 186.609375 101.875 C 183.425781 99.863281 179.34375 98.382813 174.773438 97.828125 C 170.203125 97.273438 165.148438 97.640625 160.773438 99.917969 C 156.398438 102.191406 152.703125 106.371094 149.667969 110.867188 C 139.15625 126.421875 137.964844 134.816406 138.542969 154.304688 C 138.835938 164.144531 138.34375 174.976563 139.96875 182.542969 C 141.597656 190.105469 147.308594 196.191406 148.742188 200.871094 C 150.175781 205.550781 151.199219 208.832031 151.464844 212.03125 C 151.734375 215.234375 151.246094 218.355469 150.953125 220.257813 C 150.792969 221.324219 150.6875 222.007813 150.703125 222.464844 L 118.363281 222.464844 L 118.363281 218.886719 L 123.171875 218.886719 C 128.59375 218.886719 132.488281 217.078125 134.789063 213.453125 C 136.0625 211.445313 136.695313 206.660156 136.695313 199.171875 L 136.695313 114.105469 C 136.695313 105.824219 135.851563 100.683594 134.144531 98.699219 C 131.695313 95.851563 128.007813 94.421875 123.171875 94.421875 L 118.363281 94.421875 L 118.363281 90.8125 L 166.507813 90.8125 C 174.367188 90.8125 182.664063 94.457031 182.664063 94.457031 C 189.308594 96.878906 194.859375 100.984375 199.410156 106.75 C 203.960938 112.515625 206.21875 119.34375 206.21875 127.230469 C 206.21875 149.636719 184.683594 167.222656 162.757813 162.851563 Z M 157.753906 208.789063 L 157.832031 177.0625 C 157.832031 177.0625 157.804688 177.71875 157.414063 179.035156 C 157.023438 180.351563 155.160156 181.777344 154.328125 181.679688 C 153.496094 181.582031 152.976563 180.460938 152.902344 178.859375 C 152.828125 177.257813 153.207031 175.179688 153.191406 171.914063 C 153.175781 168.648438 152.769531 164.195313 152.03125 160.011719 C 151.292969 155.828125 150.226563 151.914063 149.082031 149.21875 C 147.941406 146.519531 146.726563 145.039063 145.972656 144.269531 C 145.21875 143.503906 144.925781 143.449219 145.242188 144.667969 C 145.558594 145.882813 146.480469 148.371094 147.382813 150.855469 C 148.28125 153.34375 149.15625 155.828125 149.882813 159.585938 C 150.613281 163.339844 151.199219 168.367188 151.488281 172.464844 C 151.78125 176.566406 151.78125 179.738281 151.707031 181.855469 C 151.632813 183.96875 151.488281 185.027344 151.488281 186.984375 C 151.488281 188.941406 151.632813 191.800781 152.023438 194.3125 C 152.414063 196.824219 153.042969 198.992188 154.015625 201.980469 C 154.988281 204.96875 156.300781 208.777344 156.910156 211.742188 C 157.515625 214.703125 157.417969 216.820313 157.371094 218.484375 C 157.355469 219.074219 157.34375 219.601563 157.304688 220.078125 L 157.402344 220.171875 C 158.015625 220.761719 158.75 221.140625 159.398438 221.488281 C 160.046875 221.835938 160.609375 222.152344 161.320313 222.390625 C 161.398438 222.417969 161.476563 222.441406 161.558594 222.464844 L 168.121094 222.464844 C 168.265625 222.429688 168.417969 222.390625 168.574219 222.347656 C 169.628906 222.066406 170.957031 221.667969 172.035156 221.398438 C 173.109375 221.121094 173.9375 220.972656 174.988281 220.808594 C 176.039063 220.644531 177.3125 220.460938 178.03125 220.355469 C 178.75 220.246094 178.914063 220.214844 179.054688 220.3125 C 179.195313 220.410156 179.3125 220.644531 179.402344 220.867188 C 179.492188 221.089844 179.558594 221.304688 179.617188 221.570313 C 179.671875 221.820313 179.71875 222.113281 179.730469 222.464844 L 180.335938 222.464844 L 180.167969 218.886719 L 175.230469 218.886719 C 174.621094 218.886719 174.027344 218.863281 173.457031 218.816406 L 173.390625 218.820313 C 170.820313 218.832031 168.765625 218.902344 167.128906 218.722656 C 165.761719 218.574219 161.84375 218.375 159.675781 215.949219 C 157.082031 213.046875 157.753906 208.789063 157.753906 208.789063 Z M 202.429688 172.933594 L 235.691406 172.933594 C 235.421875 168.324219 234.886719 165.085938 234.03125 163.210938 C 232.742188 160.292969 230.789063 157.988281 228.191406 156.300781 C 225.59375 154.640625 222.890625 153.785156 220.078125 153.785156 C 215.738281 153.785156 211.855469 155.472656 208.429688 158.847656 C 205 162.21875 202.992188 166.933594 202.429688 172.933594 Z M 282.605469 163.53125 C 291.015625 153.382813 299.050781 148.296875 306.679688 148.296875 C 310.617188 148.296875 313.992188 149.285156 316.804688 151.242188 C 319.640625 153.195313 321.890625 156.4375 323.550781 160.933594 C 324.703125 164.066406 325.265625 168.886719 325.265625 175.367188 L 325.265625 206.058594 C 325.265625 210.582031 325.640625 213.691406 326.390625 215.296875 C 326.953125 216.609375 327.890625 217.625 329.175781 218.375 C 330.433594 219.097656 332.816406 219.472656 336.273438 219.472656 L 336.273438 222.285156 L 300.710938 222.285156 L 300.710938 219.472656 L 302.210938 219.472656 C 305.554688 219.472656 307.914063 218.9375 309.226563 217.921875 C 310.5625 216.902344 311.5 215.402344 312.011719 213.421875 C 312.222656 212.644531 312.332031 210.179688 312.332031 206.058594 L 312.332031 176.628906 C 312.332031 170.09375 311.476563 165.351563 309.789063 162.382813 C 308.074219 159.433594 305.207031 157.960938 301.191406 157.960938 C 294.980469 157.960938 288.765625 161.363281 282.605469 168.164063 L 282.605469 206.058594 C 282.605469 210.90625 282.875 213.902344 283.464844 215.054688 C 284.1875 216.582031 285.203125 217.707031 286.488281 218.402344 C 287.773438 219.097656 290.371094 219.472656 294.28125 219.472656 L 294.28125 222.285156 L 258.746094 222.285156 L 258.746094 219.472656 L 260.328125 219.472656 C 263.96875 219.472656 266.460938 218.535156 267.746094 216.6875 C 269.003906 214.8125 269.644531 211.28125 269.644531 206.058594 L 269.644531 179.359375 C 269.644531 170.734375 269.457031 165.488281 269.054688 163.613281 C 268.679688 161.710938 268.066406 160.425781 267.261719 159.757813 C 266.460938 159.085938 265.359375 158.738281 263.996094 158.738281 C 262.550781 158.738281 260.78125 159.140625 258.746094 159.917969 L 257.566406 157.078125 L 279.234375 148.296875 L 282.605469 148.296875 Z M 361.203125 196.070313 C 356.8125 193.925781 353.4375 190.953125 351.082031 187.097656 C 348.722656 183.242188 347.574219 179.011719 347.574219 174.351563 C 347.574219 167.226563 350.25 161.121094 355.605469 155.980469 C 360.960938 150.867188 367.816406 148.296875 376.199219 148.296875 C 383.054688 148.296875 388.972656 149.980469 394.007813 153.328125 L 409.21875 153.328125 C 411.46875 153.328125 412.78125 153.382813 413.15625 153.515625 C 413.503906 153.652344 413.769531 153.867188 413.929688 154.1875 C 414.253906 154.667969 414.414063 155.5 414.414063 156.703125 C 414.414063 158.070313 414.277344 159.007813 414.011719 159.515625 C 413.851563 159.785156 413.582031 159.996094 413.179688 160.15625 C 412.804688 160.320313 411.46875 160.371094 409.21875 160.371094 L 399.898438 160.371094 C 402.816406 164.148438 404.289063 168.96875 404.289063 174.832031 C 404.289063 181.527344 401.71875 187.230469 396.605469 192 C 391.464844 196.765625 384.582031 199.148438 375.957031 199.148438 C 372.398438 199.148438 368.78125 198.613281 365.058594 197.570313 C 362.757813 199.550781 361.203125 201.289063 360.398438 202.789063 C 359.570313 204.289063 359.167969 205.546875 359.167969 206.59375 C 359.167969 207.476563 359.597656 208.332031 360.453125 209.191406 C 361.335938 210.019531 363.023438 210.609375 365.515625 210.984375 C 366.988281 211.199219 370.65625 211.386719 376.519531 211.546875 C 387.285156 211.789063 394.277344 212.164063 397.460938 212.644531 C 402.308594 213.316406 406.191406 215.109375 409.109375 218.054688 C 412.003906 220.972656 413.449219 224.589844 413.449219 228.875 C 413.449219 234.792969 410.691406 240.335938 405.148438 245.503906 C 396.980469 253.136719 386.347656 256.964844 373.226563 256.964844 C 363.132813 256.964844 354.589844 254.6875 347.625 250.136719 C 343.714844 247.511719 341.761719 244.808594 341.761719 241.96875 C 341.761719 240.710938 342.03125 239.476563 342.617188 238.21875 C 343.503906 236.265625 345.351563 233.585938 348.109375 230.132813 C 348.484375 229.648438 351.132813 226.839844 356.113281 221.667969 C 353.382813 220.035156 351.484375 218.589844 350.359375 217.304688 C 349.234375 216.019531 348.671875 214.574219 348.671875 212.941406 C 348.671875 211.117188 349.394531 208.976563 350.894531 206.511719 C 352.394531 204.050781 355.820313 200.566406 361.203125 196.070313 Z M 374.859375 152.070313 C 371.003906 152.070313 367.738281 153.625 365.140625 156.703125 C 362.515625 159.785156 361.203125 164.523438 361.203125 170.898438 C 361.203125 179.171875 362.996094 185.570313 366.558594 190.125 C 369.261719 193.578125 372.71875 195.292969 376.894531 195.292969 C 380.886719 195.292969 384.152344 193.820313 386.695313 190.820313 C 389.269531 187.847656 390.554688 183.160156 390.554688 176.789063 C 390.554688 168.460938 388.757813 161.953125 385.144531 157.238281 C 382.464844 153.785156 379.039063 152.070313 374.859375 152.070313 Z M 360.425781 222.285156 C 357.964844 224.964844 356.113281 227.425781 354.855469 229.730469 C 353.597656 232.03125 352.980469 234.148438 352.980469 236.105469 C 352.980469 238.59375 354.480469 240.789063 357.535156 242.691406 C 362.757813 245.929688 370.308594 247.539063 380.191406 247.539063 C 389.617188 247.539063 396.550781 245.878906 401.023438 242.558594 C 405.496094 239.238281 407.746094 235.703125 407.746094 231.925781 C 407.746094 229.222656 406.40625 227.292969 403.726563 226.140625 C 401.023438 224.992188 395.613281 224.292969 387.582031 224.078125 C 375.796875 223.785156 366.746094 223.167969 360.425781 222.285156 Z M 485.324219 150.410156 L 485.324219 193.953125 C 485.324219 202.28125 485.511719 207.371094 485.914063 209.21875 C 486.316406 211.09375 486.929688 212.378906 487.789063 213.101563 C 488.671875 213.851563 489.664063 214.199219 490.8125 214.199219 C 492.449219 214.199219 494.269531 213.769531 496.304688 212.859375 L 497.402344 215.617188 L 475.898438 224.480469 L 472.390625 224.480469 L 472.390625 209.269531 C 466.203125 215.964844 461.492188 220.171875 458.25 221.882813 C 455.011719 223.625 451.582031 224.480469 447.996094 224.480469 C 443.949219 224.480469 440.46875 223.328125 437.496094 221 C 434.550781 218.671875 432.488281 215.671875 431.335938 212.003906 C 430.1875 208.332031 429.625 203.164063 429.625 196.46875 L 429.625 164.390625 C 429.625 160.988281 429.25 158.632813 428.527344 157.320313 C 427.804688 156.007813 426.703125 155.015625 425.257813 154.292969 C 423.839844 153.597656 421.214844 153.277344 417.464844 153.328125 L 417.464844 150.410156 L 442.636719 150.410156 L 442.636719 198.507813 C 442.636719 205.199219 443.816406 209.59375 446.148438 211.679688 C 448.476563 213.796875 451.289063 214.839844 454.582031 214.839844 C 456.832031 214.839844 459.375 214.117188 462.214844 212.726563 C 465.078125 211.304688 468.453125 208.601563 472.390625 204.636719 L 472.390625 163.90625 C 472.390625 159.835938 471.640625 157.078125 470.140625 155.632813 C 468.640625 154.214844 465.5625 153.4375 460.847656 153.328125 L 460.847656 150.410156 Z M 520.941406 110.722656 C 523.136719 110.722656 525.011719 111.5 526.5625 113.027344 C 528.089844 114.582031 528.867188 116.457031 528.867188 118.652344 C 528.867188 120.847656 528.089844 122.722656 526.5625 124.300781 C 525.011719 125.855469 523.136719 126.65625 520.941406 126.65625 C 518.746094 126.65625 516.871094 125.855469 515.289063 124.300781 C 513.738281 122.722656 512.933594 120.847656 512.933594 118.652344 C 512.933594 116.457031 513.710938 114.582031 515.261719 113.027344 C 516.789063 111.5 518.691406 110.722656 520.941406 110.722656 Z M 527.449219 148.296875 L 527.449219 206.058594 C 527.449219 210.554688 527.769531 213.527344 528.4375 215.027344 C 529.082031 216.527344 530.046875 217.625 531.332031 218.375 C 532.617188 219.097656 534.972656 219.472656 538.375 219.472656 L 538.375 222.285156 L 503.453125 222.285156 L 503.453125 219.472656 C 506.960938 219.472656 509.320313 219.125 510.496094 218.429688 C 511.703125 217.761719 512.664063 216.636719 513.363281 215.054688 C 514.085938 213.503906 514.433594 210.503906 514.433594 206.058594 L 514.433594 178.339844 C 514.433594 170.546875 514.191406 165.515625 513.738281 163.210938 C 513.363281 161.523438 512.773438 160.371094 511.996094 159.730469 C 511.21875 159.058594 510.148438 158.738281 508.78125 158.738281 C 507.308594 158.738281 505.542969 159.140625 503.453125 159.917969 L 502.355469 157.078125 L 523.992188 148.296875 Z M 568.257813 163.53125 C 576.667969 153.382813 584.703125 148.296875 592.332031 148.296875 C 596.269531 148.296875 599.644531 149.285156 602.457031 151.242188 C 605.292969 153.195313 607.542969 156.4375 609.203125 160.933594 C 610.355469 164.066406 610.917969 168.886719 610.917969 175.367188 L 610.917969 206.058594 C 610.917969 210.582031 611.292969 213.691406 612.042969 215.296875 C 612.605469 216.609375 613.542969 217.625 614.828125 218.375 C 616.085938 219.097656 618.46875 219.472656 621.925781 219.472656 L 621.925781 222.285156 L 586.363281 222.285156 L 586.363281 219.472656 L 587.859375 219.472656 C 591.207031 219.472656 593.566406 218.9375 594.878906 217.921875 C 596.214844 216.902344 597.152344 215.402344 597.664063 213.421875 C 597.875 212.644531 597.984375 210.179688 597.984375 206.058594 L 597.984375 176.628906 C 597.984375 170.09375 597.125 165.351563 595.441406 162.382813 C 593.726563 159.433594 590.859375 157.960938 586.84375 157.960938 C 580.632813 157.960938 574.417969 161.363281 568.257813 168.164063 L 568.257813 206.058594 C 568.257813 210.90625 568.527344 213.902344 569.117188 215.054688 C 569.839844 216.582031 570.855469 217.707031 572.140625 218.402344 C 573.425781 219.097656 576.023438 219.472656 579.933594 219.472656 L 579.933594 222.285156 L 544.398438 222.285156 L 544.398438 219.472656 L 545.980469 219.472656 C 549.621094 219.472656 552.109375 218.535156 553.398438 216.6875 C 554.65625 214.8125 555.296875 211.28125 555.296875 206.058594 L 555.296875 179.359375 C 555.296875 170.734375 555.109375 165.488281 554.707031 163.613281 C 554.335938 161.710938 553.71875 160.425781 552.914063 159.757813 C 552.109375 159.085938 551.011719 158.738281 549.648438 158.738281 C 548.203125 158.738281 546.433594 159.140625 544.398438 159.917969 L 543.21875 157.078125 L 564.886719 148.296875 L 568.257813 148.296875 Z M 568.257813 163.53125 "/>
<path style=" stroke:none;fill-rule:evenodd;fill:rgb(100%,100%,100%);fill-opacity:1;" d="M 617.046875 135.09375 C 621.0625 135.09375 624.316406 138.347656 624.316406 142.363281 C 624.316406 146.382813 621.0625 149.636719 617.046875 149.636719 C 613.027344 149.636719 609.773438 146.382813 609.773438 142.363281 C 609.773438 138.347656 613.027344 135.09375 617.046875 135.09375 Z M 620.949219 146.171875 L 619.132813 146.171875 L 616.339844 142.3125 C 616.132813 142.320313 615.964844 142.324219 615.832031 142.324219 C 615.78125 142.324219 615.726563 142.324219 615.664063 142.320313 C 615.601563 142.320313 615.539063 142.316406 615.472656 142.3125 L 615.472656 144.710938 C 615.472656 145.230469 615.53125 145.554688 615.644531 145.679688 C 615.800781 145.859375 616.03125 145.949219 616.339844 145.949219 L 616.664063 145.949219 L 616.664063 146.171875 L 613.140625 146.171875 C 614.128906 147.1875 615.511719 147.820313 617.046875 147.820313 C 618.578125 147.820313 619.960938 147.1875 620.949219 146.171875 Z M 613.125 146.15625 L 613.125 145.949219 L 613.433594 145.949219 C 613.785156 145.949219 614.035156 145.832031 614.183594 145.605469 C 614.269531 145.480469 614.3125 145.179688 614.3125 144.710938 L 614.3125 139.375 C 614.3125 138.855469 614.253906 138.535156 614.140625 138.410156 C 614.007813 138.261719 613.824219 138.175781 613.582031 138.148438 C 612.367188 139.148438 611.589844 140.667969 611.589844 142.363281 C 611.589844 143.839844 612.175781 145.175781 613.125 146.15625 Z M 613.886719 137.917969 L 616.132813 137.917969 C 617.007813 137.917969 617.65625 137.980469 618.070313 138.109375 C 618.488281 138.234375 618.839844 138.472656 619.128906 138.8125 C 619.417969 139.160156 619.566406 139.566406 619.566406 140.042969 C 619.566406 140.550781 619.402344 140.988281 619.070313 141.363281 C 618.738281 141.734375 618.226563 142 617.53125 142.152344 L 619.238281 144.523438 C 619.625 145.066406 619.960938 145.429688 620.242188 145.605469 C 620.488281 145.761719 620.796875 145.867188 621.175781 145.925781 C 622 144.972656 622.5 143.726563 622.5 142.363281 C 622.5 139.351563 620.058594 136.910156 617.046875 136.910156 C 615.867188 136.910156 614.777344 137.28125 613.886719 137.917969 Z M 615.472656 141.929688 C 615.550781 141.929688 615.617188 141.929688 615.675781 141.929688 C 615.730469 141.933594 615.777344 141.933594 615.8125 141.933594 C 616.601563 141.933594 617.195313 141.765625 617.59375 141.421875 C 617.996094 141.082031 618.195313 140.648438 618.195313 140.121094 C 618.195313 139.605469 618.035156 139.183594 617.710938 138.863281 C 617.390625 138.542969 616.960938 138.378906 616.429688 138.378906 C 616.195313 138.378906 615.875 138.417969 615.472656 138.496094 Z M 615.472656 141.929688 "/>
</g>
</svg>
