<?xml version="1.0" encoding="utf-8"?>
<!-- Generator: Adobe Illustrator 22.0.1, SVG Export Plug-In . SVG Version: 6.00 Build 0)  -->
<svg version="1.1" id="Layer_1" xmlns="http://www.w3.org/2000/svg" xmlns:xlink="http://www.w3.org/1999/xlink" x="0px" y="0px"
	 viewBox="0 0 600 976" style="enable-background:new 0 0 600 976;" xml:space="preserve">
<style type="text/css">
	.st0{fill:#212121;}
	.st1{font-family:'TwCenMT-CondensedExtraBold';}
	.st2{font-size:9.0257px;}
</style>
<g>
	<g>
		<path class="st0" d="M294.1,480.5L294.1,480.5c0.1,0.1,0,0.1-0.1,0.1s-0.1,0,0,0C294,480.6,294,480.6,294.1,480.5
			C294,480.5,294,480.5,294.1,480.5L294.1,480.5z M293.9,480.7C294,480.7,294,480.7,293.9,480.7C294,480.8,294,480.8,293.9,480.7
			C293.9,480.8,293.9,480.8,293.9,480.7C293.9,480.8,293.9,480.8,293.9,480.7C293.9,480.8,293.9,480.7,293.9,480.7z M293.9,480.9
			L293.9,480.9C293.8,480.9,293.8,480.9,293.9,480.9L293.9,480.9C293.8,480.9,293.8,480.9,293.9,480.9L293.9,480.9z M277.3,481.4
			L277.3,481.4L277.3,481.4C277.3,481.4,277.2,481.4,277.3,481.4L277.3,481.4z M277.1,481.6L277.1,481.6L277.1,481.6L277.1,481.6
			L277.1,481.6L277.1,481.6z M291.8,481.8L291.8,481.8L291.8,481.8c-0.1,0.1-0.1,0.1-0.1,0.1S291.7,481.8,291.8,481.8L291.8,481.8z
			 M290.1,482.8L290.1,482.8C290.1,482.8,290.1,482.9,290.1,482.8L290.1,482.8C290.1,482.9,290.1,482.9,290.1,482.8L290.1,482.8z
			 M288,483.1L288,483.1C288,483.2,288,483.2,288,483.1C288,483.2,288,483.2,288,483.1C288,483.2,288,483.2,288,483.1
			C288,483.2,288,483.1,288,483.1z M286.3,483.7L286.3,483.7C286.3,483.7,286.2,483.7,286.3,483.7l-0.1,0.1L286.3,483.7
			C286.2,483.7,286.3,483.7,286.3,483.7z M286,483.8L286,483.8C286,483.9,286,483.9,286,483.8C286,483.9,285.9,483.9,286,483.8
			c-0.1,0.1-0.2,0.1-0.2,0.1l0,0c0-0.1,0.1-0.1,0.1-0.1H286C285.9,483.8,285.9,483.8,286,483.8z M284.7,484.1L284.7,484.1
			L284.7,484.1L284.7,484.1L284.7,484.1z M284.7,484.1L284.7,484.1C284.7,484.1,284.7,484.2,284.7,484.1
			C284.6,484.2,284.6,484.2,284.7,484.1C284.6,484.2,284.6,484.2,284.7,484.1C284.6,484.1,284.7,484.1,284.7,484.1z M275.9,480.9
			c-0.2,0-0.5,0.1-0.5,0.1v0.1c0,0.1,0.1,0.1,0.3,0.1c0.1,0,0.1,0,0.1,0h0.1c0.1,0,0.1,0,0.1,0s0,0,0.1,0l0,0h0.1
			c0.1,0,0.1,0,0.1,0.1v0.1h0.1c0.1,0,0.1,0,0.3,0.1c0.1,0.1,0.1,0.1,0.3,0.1c0.2,0,0.2,0,0.2,0.1v0.1c0,0.1,0,0.1,0,0.1l0,0
			c0,0,0,0-0.1,0H277c-0.1,0-0.1,0-0.2,0s-0.2,0-0.3,0l0,0c0,0-0.1,0-0.1-0.1s-0.1-0.1-0.1-0.1c-0.1,0-0.1,0.1-0.1,0.1
			c0,0.1,0.1,0.1,0.2,0.1s0.1,0,0.1,0.1l0,0h-0.1c-0.1,0-0.1,0-0.1,0h-0.1l-0.1,0.1c-0.1,0-0.1,0-0.1,0.1s0.1,0.1,0.1,0.1h0.1h0.1
			h0.1c0,0,0.1,0,0.2,0s0.2,0,0.3,0c0.1,0,0.1,0,0.1,0.1c0,0-0.1,0-0.1,0.1s0,0.1,0.2,0.1c0.1,0,0.1,0,0.1,0.1h0.1
			c0.1,0,0.1,0,0.1,0.1c0,0,0,0.1,0.1,0.1s0.2-0.1,0.3-0.1l0,0c0,0,0,0,0.1,0l0.1,0.1h0.1h0.1c0.1,0,0.1,0,0.1,0.1s0,0.1,0.1,0.1
			s0.1,0-0.1,0h-0.1h0.3c0,0-0.1,0-0.2,0s-0.1,0-0.1,0c-0.1,0-0.1,0-0.1,0.1s0,0.1-0.1,0.1c0,0,0,0-0.1,0h-0.1c-0.1,0-0.1,0-0.1,0
			c0,0.1,0.1,0.1,0.1,0.1c0.1,0,0.1,0,0.2,0s0.1,0,0.1,0.1s0,0.1,0.1,0.1s0.4,0.1,0.4,0.1l0,0c0,0-0.1,0-0.1,0.1l-0.1,0.1
			c0,0-0.1,0-0.1,0.1s0,0.1,0.1,0.1s0.1,0,0.1-0.1s0.1-0.1,0.1-0.1s0,0,0.1,0s0.1,0,0.1,0.1c0,0,0,0.1,0.1,0.1h0.1
			c0.1,0,0.1,0,0.1,0l0,0l0,0c0,0,0,0.1,0.1,0.1l0,0l0,0h0.1c0.1,0,0.1,0.1,0.2,0.1s0.2,0,0.2,0c0.1,0,0.1,0,0.1,0.1h-0.1
			c0,0-0.1,0-0.2,0s-0.1,0-0.1,0.1s0,0.1,0.2,0.1c0.1,0,0.1,0,0.1,0c0.1,0,0.2,0,0.2-0.1l0,0c0,0,0.1,0,0.1,0.1
			c0.1,0,0.1,0.1,0.1,0.1h0.1c0,0,0.1,0,0.3,0c0.1,0,0.1,0,0.2,0c0.4,0,0.4,0,0.5,0.1c0.1,0,0.1,0.1,0,0.1s-0.1,0.1,0,0.1l0,0
			c-0.1,0-0.1,0-0.1,0.1s-0.1,0.1-0.1,0.1c-0.1,0-0.1,0-0.1,0s-0.1,0-0.2,0.1c-0.1,0-0.1,0-0.1,0.1l-0.1,0.1c-0.1,0-0.1,0.1-0.1,0.1
			c0,0.1,0,0.1,0.1,0.1c0,0,0.1,0,0.1,0.1h0.1c0.1,0,0.2,0,0.2-0.1h0.1h0.1c0,0,0.1,0,0.2,0h0.1v0.1c0,0.1,0,0.1,0.1,0.1h0.1h0.1
			c0,0,0,0,0.1,0h0.1h0.1c0.1,0,0.4,0,0.4-0.1h0.1c0.1,0,0.1,0,0.1,0c0.1,0,0.1,0,0.1,0c0.1,0,0.1,0,0.1,0h0.1
			c0.1,0,0.4,0.1,0.4,0.1l0.1,0.1h0.1h0.1h0.1c0,0,0,0,0.1,0h0.1h0.1c0.1,0,0.1,0,0.1,0h0.1c0.1,0,0.1,0,0.1,0.1s0,0.1,0.1,0.1
			c0,0,0,0,0.1,0s0.1,0,0.1,0s0,0,0.1,0s0.1-0.1,0.1-0.1s0,0,0.1,0l0,0h0.1c0,0,0,0,0,0.1s0,0.1,0.1,0.1s0.1,0,0.2-0.1
			s0.1-0.1,0.1-0.1h0.1l0,0l0,0l-0.1,0.1h-0.1l-0.1,0.1c-0.1,0-0.1,0.1,0,0.1c0,0-0.1,0.2-0.2,0.2s-0.1,0.1-0.1,0.1l0.1,0.1
			c0.1,0,0.1,0,0.1,0.1s0,0.1,0.1,0.1h0.1c0.1-0.1,0.1-0.1,0.1-0.1s0.1-0.1,0.2-0.2s0.2-0.2,0.3-0.2c0,0,0.1,0,0.1-0.1
			c0,0,0,0,0.1,0l0,0l0,0c0,0,0.1,0,0.1-0.1c0,0,0-0.1,0.1-0.1h0.1l0.1-0.1c0.1,0,0.1-0.1,0.1-0.1s0,0,0.1-0.1h0.1c0,0,0,0,0.1,0
			c0,0,0,0,0.1,0c0,0,0.1,0,0.1-0.1c0.1,0,0.1-0.1,0.2-0.1c0.1-0.1,0.1-0.1,0.1-0.1s0,0,0.1,0c0,0,0,0,0.1,0h0.1l0.1-0.1
			c0.1-0.1,0.1-0.1,0.1-0.1l0.1-0.1l0.1-0.1c0.1,0,0.1-0.1,0.1-0.1l0.1-0.1c0,0,0,0,0.1,0l0,0c0,0,0,0,0.1,0c0,0,0,0,0-0.1
			s0-0.1,0-0.1h0.1l0,0c0,0,0,0,0,0.1v0.1c0,0,0,0,0.1,0s0.1,0,0.1-0.1c0,0,0,0,0.1,0h0.1l0,0l0,0v0.1c-0.1,0-0.3,0.2-0.3,0.2
			s0,0-0.1,0h-0.1c0,0,0,0-0.1,0h-0.1c0,0,0,0-0.1,0c0,0-0.1,0-0.1,0.1s-0.1,0.1-0.1,0.1c-0.1,0-0.1,0.3,0,0.3c0,0,0.1,0,0.1,0.1
			s0,0.1,0.1,0.1c0,0,0,0,0.1,0s0.3-0.1,0.3-0.2l0.1-0.1c0.1,0,0.1,0,0.1-0.1c0,0,0-0.1,0.1-0.1c0,0,0.1,0,0.1-0.1c0,0,0,0,0.1,0
			l0,0l0,0c0,0,0,0,0-0.1v-0.1l0.1-0.1c0.1-0.1,0.1-0.1,0.1-0.1h0.1l0,0l0.1-0.1c0.1-0.1,0.1-0.1,0.1-0.1l0.1-0.1
			c0.1-0.1,0.2-0.2,0.4-0.3c0.1-0.1,0.2-0.1,0.3-0.1l0,0l0,0h0.1c0-0.1,0.1-0.1,0.1-0.1s0.1,0,0.1-0.1c0.1-0.1,0.1-0.1,0.1-0.1l0,0
			l-0.1,0.2h-0.1h-0.1c-0.1,0-0.1,0-0.1,0.1c-0.1,0.1,0,0.1,0,0.1h0.1c0,0,0,0,0.1,0h0.1c0,0,0,0,0.1-0.1c0,0,0.1,0,0.1-0.1
			c0,0,0-0.1,0.1-0.1h0.1l0,0c0,0-0.1,0.1-0.2,0.2s-0.1,0.1-0.1,0.1l-0.1,0.1c-0.1,0.1-0.1,0.1-0.1,0.1c0,0.1,0,0.1,0.1,0.1
			c0,0,0.1,0,0.1-0.1l0.1-0.1c0,0,0,0,0.1-0.1c0,0,0,0,0.1,0l0,0c0,0,0,0,0.1,0l0,0l0,0l0,0c0,0,0,0-0.1,0.1s-0.1,0.1-0.1,0.1
			c0,0.1,0,0.1,0,0.1v0.1c0,0.1,0,0.1,0.1,0.1s0.1-0.1,0.2-0.1c0.1-0.1,0.1-0.1,0.2-0.2c0-0.1,0.1-0.1,0.1-0.1
			c0.1,0,0.1-0.1,0.1-0.1l0,0c0,0,0,0,0.1,0h0.1c0.1,0,0.1,0,0.1-0.1h0.1l0,0c0.1,0,0.1,0.1,0,0.1c0,0-0.1,0-0.1,0.1l-0.1,0.1l0,0
			l0,0c0,0-0.1,0-0.1,0.1c-0.1,0.1-0.1,0.1-0.1,0.1c-0.1,0.1-0.1,0.2-0.1,0.2c-0.1,0-0.1,0.1-0.1,0.1s0,0,0.1,0h0.1l0.1-0.1
			c0,0,0.1,0,0.1-0.1s0.1-0.1,0.1-0.1l0,0c0,0,0,0,0.1,0c0,0,0.1,0,0.1-0.1c0,0,0-0.1,0.1-0.1s0.1-0.1,0.1-0.1s0-0.1,0.1-0.1
			c0.2-0.2,0.4-0.4,0.4-0.4s0-0.1,0.1-0.1c0,0,0.1,0,0.1-0.1s0.1-0.1,0.1-0.1s0.1,0,0.1-0.1s0.1-0.1,0.1-0.1c0.1,0,0.1,0,0.1-0.1
			c0.1-0.1,0.3-0.3,0.4-0.3c0,0,0.1,0,0.1-0.1c0.1-0.1,0.4-0.4,0.5-0.4l0,0c0,0,0,0.1-0.1,0.1c-0.1,0.1-0.1,0.1-0.1,0.1
			c0,0.1,0,0.1,0,0.1v0.1c0,0,0,0.1-0.1,0.1c-0.1,0.1-0.1,0.2-0.1,0.3c0,0.1,0,0.1,0.1,0.1s0.2-0.1,0.2-0.2l0.1-0.1
			c0.1,0,0.1-0.1,0.1-0.1s0-0.1,0.1-0.1l0.1-0.1l0.1-0.1c0.1,0,0.2-0.1,0.2-0.2c0,0,0-0.1,0.1-0.1s0.1,0,0.1,0l0,0h0.1l0.1-0.1
			c0.1-0.1,0.1-0.1,0.1-0.1l0.1-0.1l0.1-0.1c0-0.1,0.1-0.1,0.1-0.1s0.1,0,0.1-0.1l0.1-0.1c0,0,0.1,0,0.1-0.1s0-0.1,0-0.1
			c0-0.1,0-0.1,0-0.1l0,0v0.1c0,0.1,0,0.1,0.1,0.1s0.1,0,0.1-0.3c0-0.1,0-0.2,0-0.3v-0.6v0.1c0,0.1,0,0.1,0.1,0.1l0,0
			c0.1,0,0.1,0,0.1-0.1s0-0.1,0.1-0.1v-0.1l0.1-0.1l0,0v-0.5l0,0c-0.1,0-0.2-0.1-0.3-0.1c-0.1-0.1-0.1-0.1-0.1-0.1
			c-0.1,0-0.1-0.1-0.1-0.1c-0.1-0.1-0.1-0.1-0.1-0.1c-0.1-0.1-0.2-0.1-0.3-0.1c-0.1,0-0.1-0.1-0.1-0.1l-0.1-0.1c0,0-0.1,0-0.1-0.1
			l-0.1-0.1h-0.1h-0.1c0,0-0.1,0-0.1-0.1l-0.1-0.1H295c-0.1-0.1-0.5-0.1-0.8-0.1c-0.2,0-0.3,0-0.3-0.1c-0.1,0-0.1-0.1-0.1-0.1
			s0,0-0.1,0c0,0,0,0-0.1,0s-0.1,0-0.1,0c-0.1,0-0.1,0-0.2,0s-0.1,0-0.1,0s-0.3,0-0.7,0.1c-0.2,0-0.3,0-0.4,0.1
			c-0.1,0-0.1,0.1-0.1,0.1l0,0l0,0c0-0.1,0-0.1-0.1-0.1s-0.1,0-0.1,0.1s-0.1,0.1-0.4,0.1c-0.1,0-0.2,0-0.2,0s-0.1,0-0.2,0
			s-0.2,0-0.3,0.1c-0.1,0.1-0.1,0.1-0.2,0.1s-0.3,0.1-0.3,0.1h-0.1c-0.1,0-0.1,0-0.1,0l-0.1,0.1c0,0-0.1,0-0.1,0.1
			c-0.1,0.1-0.2,0.1-0.3,0.1c0,0-0.1,0-0.1,0.1l-0.1,0.1c-0.1,0-0.1,0.1-0.1,0.1c-0.1,0.1-0.1,0.1-0.2,0.1c0,0-0.1,0-0.1,0.1
			l-0.1,0.1l-0.1,0.1c-0.1,0.1-0.1,0.1-0.1,0.1c-0.1,0-0.1,0-0.1,0.1c-0.1,0.1-0.1,0.1-0.1,0.1c-0.1,0-0.1,0.1-0.1,0.1h-0.1
			c-0.1,0-0.1,0-0.1,0.1c-0.1,0.1-0.1,0.1-0.2,0.1h-0.1h-0.1c0,0-0.1,0-0.1,0.1s-0.1,0.1-0.1,0.1h-0.1h-0.1l-0.1,0.1
			c-0.1,0.1-0.1,0.1-0.2,0.1s-0.1,0.1-0.1,0.1s-0.1,0-0.1,0.1c-0.1,0-0.2,0.1-0.2,0.2s0,0.1-0.1,0.1s-0.1,0-0.1,0.1
			c0,0-0.1,0.1-0.2,0.1s-0.1,0.1-0.2,0.1c-0.1,0.1-0.2,0.1-0.2,0.1s-0.1,0-0.1,0.1c-0.1,0.1-0.1,0.1-0.1,0.1c-0.1,0-0.1,0-0.1,0.1
			s-0.1,0.1-0.1,0.1s-0.1,0-0.1,0.1h-0.1c0,0,0,0-0.1,0l0,0H285c0,0-0.1-0.1-0.2-0.1s-0.2,0.1-0.3,0.1l0.1-0.1c-0.1,0-0.1,0-0.1,0.1
			c-0.1,0-0.1,0.1-0.1,0.1h-0.1c-0.1,0-0.1,0-0.2,0s-0.1,0-0.1,0h-0.1l0,0l0,0c-0.1,0-0.1,0-0.3,0.1c-0.1,0.1-0.2,0.1-0.4,0.1
			s-0.4,0-0.4,0h-1.3l0,0h-0.1h-0.1c-0.1,0-0.2,0-0.3,0c0,0,0,0-0.1,0s-0.2,0-0.3-0.1c-0.1-0.1-0.1-0.1-0.2-0.1s-0.1,0-0.1,0
			s0,0-0.1,0h-0.1c-0.1,0-0.1,0-0.2,0s-0.1,0-0.3-0.1c-0.1,0-0.1-0.1-0.1-0.1h-0.1c-0.1,0-0.1-0.1-0.3-0.1c-0.1,0-0.2,0-0.2,0
			s0,0-0.1,0h-0.1h-0.1h-0.1h-0.1c0,0-0.1,0-0.1-0.1c-0.1-0.1-0.1-0.1-0.1-0.1s-0.1,0-0.1-0.1"/>
	</g>
	<g>
		<path class="st0" d="M299.5,480.5C299.6,480.5,299.6,480.5,299.5,480.5c0.1,0.1,0.1,0.1,0.1,0.1c0.1,0,0.1,0,0,0
			S299.4,480.6,299.5,480.5L299.5,480.5L299.5,480.5z M299.7,480.7C299.7,480.8,299.7,480.8,299.7,480.7
			C299.7,480.8,299.7,480.8,299.7,480.7C299.6,480.8,299.6,480.8,299.7,480.7C299.6,480.7,299.6,480.7,299.7,480.7
			C299.7,480.7,299.7,480.8,299.7,480.7z M299.7,480.9C299.8,480.9,299.8,480.9,299.7,480.9L299.7,480.9
			C299.8,480.9,299.8,480.9,299.7,480.9L299.7,480.9L299.7,480.9z M316.3,481.4C316.4,481.4,316.3,481.4,316.3,481.4L316.3,481.4
			L316.3,481.4L316.3,481.4z M316.5,481.6L316.5,481.6L316.5,481.6L316.5,481.6L316.5,481.6L316.5,481.6z M301.8,481.8
			c0.1,0,0.1,0.1,0.1,0.1S301.9,481.9,301.8,481.8L301.8,481.8L301.8,481.8L301.8,481.8z M303.5,482.8
			C303.5,482.9,303.5,482.9,303.5,482.8L303.5,482.8C303.5,482.9,303.5,482.8,303.5,482.8L303.5,482.8L303.5,482.8z M305.6,483.1
			C305.6,483.2,305.6,483.2,305.6,483.1C305.6,483.2,305.6,483.2,305.6,483.1C305.6,483.2,305.6,483.2,305.6,483.1L305.6,483.1
			C305.6,483.1,305.6,483.2,305.6,483.1z M307.3,483.7l0.1,0.1L307.3,483.7C307.4,483.7,307.3,483.7,307.3,483.7L307.3,483.7
			C307.3,483.7,307.4,483.7,307.3,483.7z M307.6,483.8h0.1c0,0,0.1,0,0.1,0.1l0,0C307.8,483.9,307.7,483.9,307.6,483.8
			C307.7,483.9,307.6,483.9,307.6,483.8C307.6,483.9,307.6,483.9,307.6,483.8L307.6,483.8C307.7,483.8,307.7,483.8,307.6,483.8z
			 M308.9,484.1L308.9,484.1L308.9,484.1L308.9,484.1L308.9,484.1z M308.9,484.1C309,484.2,309,484.2,308.9,484.1
			C309,484.2,309,484.2,308.9,484.1C308.9,484.2,308.9,484.1,308.9,484.1L308.9,484.1C308.9,484.1,309,484.1,308.9,484.1z
			 M315.5,481.9c0,0.1-0.1,0.1-0.1,0.1s0,0-0.1,0.1c0,0.1-0.1,0.1-0.1,0.1h-0.1H315h-0.1h-0.1c-0.1,0-0.1,0-0.1,0s-0.1,0-0.2,0
			c-0.2,0-0.2,0.1-0.3,0.1h-0.1c0,0,0,0.1-0.1,0.1c-0.2,0.1-0.2,0.1-0.3,0.1s-0.1,0-0.2,0h-0.1c-0.1,0-0.1,0-0.1,0s0,0-0.1,0
			s-0.1,0-0.2,0.1s-0.2,0.1-0.3,0.1s-0.1,0-0.1,0c-0.1,0-0.2,0-0.3,0h-0.1h-0.1l0,0h-1.3c0,0-0.2,0-0.4,0s-0.3,0-0.4-0.1
			c-0.2-0.1-0.2-0.1-0.3-0.1l0,0l0,0h-0.1c0,0,0,0-0.1,0s-0.1,0-0.2,0h-0.1c0,0,0-0.1-0.1-0.1c0-0.1,0-0.1-0.1-0.1l0.1,0.1
			c-0.1,0-0.2-0.1-0.3-0.1s-0.2,0.1-0.2,0.1h-0.1l0,0c-0.1,0-0.1,0-0.1,0h-0.1c0-0.1-0.1-0.1-0.1-0.1s-0.1,0-0.1-0.1s0-0.1-0.1-0.1
			c0,0,0,0-0.1-0.1c0-0.1-0.1-0.1-0.1-0.1s-0.1,0-0.2-0.1c-0.1,0-0.1-0.1-0.2-0.1s-0.2-0.1-0.2-0.1c0-0.1,0-0.1-0.1-0.1
			s-0.1,0-0.1-0.1s-0.1-0.2-0.2-0.2c0-0.1-0.1-0.1-0.1-0.1s0-0.1-0.1-0.1s-0.1,0-0.2-0.1l-0.1-0.1h-0.1h-0.1c0,0-0.1,0-0.1-0.1
			s-0.1-0.1-0.1-0.1h-0.1h-0.1c-0.1,0-0.1,0-0.2-0.1c0-0.1,0-0.1-0.1-0.1h-0.1c0,0,0-0.1-0.1-0.1c0,0,0,0-0.1-0.1
			c0-0.1,0-0.1-0.1-0.1c0,0,0,0-0.1-0.1l-0.1-0.1l-0.1-0.1c0-0.1-0.1-0.1-0.1-0.1c-0.1,0-0.1,0-0.2-0.1c0,0,0-0.1-0.1-0.1l-0.1-0.1
			c0-0.1-0.1-0.1-0.1-0.1c-0.1,0-0.2,0-0.3-0.1c0-0.1-0.1-0.1-0.1-0.1l-0.1-0.1c0,0,0,0-0.1,0h-0.1c0,0-0.2-0.1-0.3-0.1
			s-0.1,0-0.2-0.1s-0.2-0.1-0.3-0.1s-0.2,0-0.2,0s-0.1,0-0.2,0c-0.3,0-0.4,0-0.4-0.1s0-0.1-0.1-0.1s-0.1,0-0.1,0.1l0,0l0,0
			c0,0,0-0.1-0.1-0.1c-0.1-0.1-0.2-0.1-0.4-0.1c-0.4-0.1-0.7-0.1-0.7-0.1s0,0-0.1,0s-0.1,0-0.2,0c0,0,0,0-0.1,0s-0.1,0-0.1,0
			c-0.1,0-0.1,0-0.1,0s0,0.1-0.1,0.1c0,0.1-0.1,0.1-0.3,0.1c-0.3,0-0.7,0-0.8,0.1h-0.1l-0.1,0.1c0,0.1-0.1,0.1-0.1,0.1h-0.1h-0.1
			l-0.1,0.1c0,0.1-0.1,0.1-0.1,0.1l-0.1,0.1c0,0,0,0.1-0.1,0.1s-0.2,0-0.3,0.1c0,0,0,0-0.1,0.1c0,0,0,0.1-0.1,0.1c0,0,0,0-0.1,0.1
			c-0.1,0-0.2,0.1-0.3,0.1l0,0v0.5l0,0l0.1,0.1v0.1c0.1,0,0.1,0,0.1,0.1s0,0.1,0.1,0.1l0,0c0.1,0,0.1,0,0.1-0.1v-0.1v0.6
			c0,0.1,0,0.2,0,0.3c0,0.3,0,0.3,0.1,0.3s0.1,0,0.1-0.1v-0.1l0,0c0,0,0,0,0,0.1c0,0,0,0,0,0.1s0.1,0.1,0.1,0.1l0.1,0.1
			c0,0.1,0.1,0.1,0.1,0.1s0.1,0,0.1,0.1l0.1,0.1l0.1,0.1c0,0,0,0,0.1,0.1l0.1,0.1h0.1l0,0c0,0,0,0,0.1,0s0.1,0.1,0.1,0.1
			c0,0.1,0.1,0.2,0.2,0.2l0.1,0.1l0.1,0.1c0.1,0,0.1,0.1,0.1,0.1s0,0.1,0.1,0.1l0.1,0.1c0,0.1,0.1,0.2,0.2,0.2s0.1,0,0.1-0.1
			s0-0.2-0.1-0.3c-0.1,0-0.1-0.1-0.1-0.1v-0.1c0,0,0,0,0-0.1c0,0,0,0-0.1-0.1c-0.1,0-0.1-0.1-0.1-0.1l0,0c0.1,0,0.4,0.3,0.5,0.4
			c0,0.1,0.1,0.1,0.1,0.1c0.1,0,0.3,0.2,0.4,0.3c0,0.1,0,0.1,0.1,0.1c0,0,0.1,0,0.1,0.1s0.1,0.1,0.1,0.1s0.1,0,0.1,0.1
			s0.1,0.1,0.1,0.1c0.1,0,0.1,0.1,0.1,0.1s0.2,0.2,0.4,0.4c0.1,0,0.1,0.1,0.1,0.1s0,0.1,0.1,0.1s0.1,0.1,0.1,0.1
			c0,0.1,0.1,0.1,0.1,0.1c0.1,0,0.1,0,0.1,0l0,0c0,0,0.1,0,0.1,0.1s0.1,0.1,0.1,0.1l0.1,0.1h0.1c0.1,0,0.1,0,0.1,0s0-0.1-0.1-0.1
			c0,0,0-0.1-0.1-0.2c0,0,0,0-0.1-0.1c0-0.1-0.1-0.1-0.1-0.1l0,0l0,0l-0.1-0.1c0-0.1-0.1-0.1-0.1-0.1c-0.1,0-0.1-0.1,0-0.1l0,0h0.1
			c0,0.1,0,0.1,0.1,0.1h0.1c0.1,0,0.1,0,0.1,0l0,0c0,0,0,0.1,0.1,0.1c0,0,0.1,0,0.1,0.1c0.1,0.1,0.1,0.1,0.2,0.2
			c0.1,0,0.1,0.1,0.2,0.1s0.1,0,0.1-0.1v-0.1c0,0,0,0,0-0.1c0,0,0,0-0.1-0.1s-0.1-0.1-0.1-0.1l0,0l0,0l0,0c0.1,0,0.1,0,0.1,0l0,0
			c0.1,0,0.1,0,0.1,0c0.1,0.1,0.1,0.1,0.1,0.1l0.1,0.1c0,0.1,0.1,0.1,0.1,0.1c0.1,0,0.1,0,0.1-0.1c0,0,0,0-0.1-0.1l-0.1-0.1
			c0,0,0,0-0.1-0.1s-0.2-0.2-0.2-0.2l0,0h0.1c0.1,0,0.1,0.1,0.1,0.1c0,0.1,0.1,0.1,0.1,0.1c0.1,0.1,0.1,0.1,0.1,0.1h0.1
			c0.1,0,0.1,0,0.1,0h0.1c0,0,0.1,0,0-0.1c0-0.1,0-0.1-0.1-0.1H303h-0.1l-0.1-0.2l0,0c0,0,0,0,0.1,0.1c0,0.1,0.1,0.1,0.1,0.1
			s0.1,0,0.1,0.1h0.1l0,0l0,0c0.1,0,0.2,0,0.3,0.1c0.2,0.1,0.3,0.2,0.4,0.3l0.1,0.1c0,0,0,0,0.1,0.1l0.1,0.1l0,0h0.1
			c0,0,0,0,0.1,0.1l0.1,0.1v0.1c0,0.1,0,0.1,0,0.1l0,0l0,0c0.1,0,0.1,0,0.1,0c0,0.1,0.1,0.1,0.1,0.1c0.1,0,0.1,0.1,0.1,0.1
			c0,0.1,0,0.1,0.1,0.1l0.1,0.1c0,0.1,0.2,0.2,0.3,0.2s0.1,0,0.1,0c0.1,0,0.1,0,0.1-0.1s0.1-0.1,0.1-0.1c0.1,0,0.1-0.3,0-0.3
			c0,0-0.1,0-0.1-0.1s-0.1-0.1-0.1-0.1c-0.1,0-0.1,0-0.1,0h-0.1c-0.1,0-0.1,0-0.1,0H305c-0.1,0-0.1,0-0.1,0s-0.2-0.2-0.3-0.2v-0.1
			l0,0l0,0h0.1c0.1,0,0.1,0,0.1,0c0,0.1,0,0.1,0.1,0.1s0.1,0,0.1,0v-0.1c0-0.1,0-0.1,0-0.1l0,0h0.1c0,0,0,0,0,0.1s0,0.1,0,0.1
			c0.1,0,0.1,0,0.1,0l0,0c0.1,0,0.1,0,0.1,0l0.1,0.1c0,0,0,0.1,0.1,0.1l0.1,0.1l0.1,0.1c0,0,0,0,0.1,0.1l0.1,0.1h0.1
			c0.1,0,0.1,0,0.1,0c0.1,0,0.1,0,0.1,0s0,0,0.1,0.1c0.1,0,0.1,0.1,0.2,0.1c0,0.1,0.1,0.1,0.1,0.1c0.1,0,0.1,0,0.1,0
			c0.1,0,0.1,0,0.1,0h0.1c0.1,0.1,0.1,0.1,0.1,0.1s0,0.1,0.1,0.1l0.1,0.1h0.1c0.1,0,0.1,0.1,0.1,0.1c0,0.1,0.1,0.1,0.1,0.1l0,0l0,0
			c0.1,0,0.1,0,0.1,0c0,0.1,0.1,0.1,0.1,0.1c0.1,0,0.2,0.1,0.3,0.2s0.2,0.2,0.2,0.2s0,0,0.1,0.1h0.1c0.1,0,0.1,0,0.1-0.1
			s0-0.1,0.1-0.1l0.1-0.1c0,0,0-0.1-0.1-0.1s-0.2-0.2-0.2-0.2c0.1,0,0.1-0.1,0-0.1l-0.1-0.1h-0.1l-0.1-0.1l0,0l0,0h0.1
			c0,0,0,0,0.1,0.1s0.1,0.1,0.2,0.1s0.1,0,0.1-0.1s0-0.1,0-0.1h0.1l0,0c0.1,0,0.1,0,0.1,0s0,0.1,0.1,0.1s0.1,0,0.1,0s0,0,0.1,0
			s0.1,0,0.1,0c0.1,0,0.1,0,0.1-0.1s0-0.1,0.1-0.1h0.1c0,0,0,0,0.1,0h0.1h0.1c0.1,0,0.1,0,0.1,0h0.1h0.1h0.1l0.1-0.1
			c0,0,0.3-0.1,0.4-0.1h0.1c0,0,0,0,0.1,0c0,0,0,0,0.1,0c0,0,0,0,0.1,0h0.1c0,0.1,0.3,0.1,0.4,0.1h0.1h0.1c0.1,0,0.1,0,0.1,0h0.1
			h0.1c0.1,0,0.1,0,0.1-0.1v-0.1h0.1c0.1,0,0.2,0,0.2,0h0.1h0.1c0,0.1,0.1,0.1,0.2,0.1h0.1c0-0.1,0.1-0.1,0.1-0.1
			c0.1,0,0.1,0,0.1-0.1c0,0,0-0.1-0.1-0.1l-0.1-0.1c0-0.1,0-0.1-0.1-0.1c-0.1-0.1-0.2-0.1-0.2-0.1s0,0-0.1,0c0,0-0.1,0-0.1-0.1
			s0-0.1-0.1-0.1l0,0c0.1,0,0.1-0.1,0-0.1s-0.1-0.1,0-0.1c0.1-0.1,0.1-0.1,0.5-0.1c0.1,0,0.1,0,0.2,0c0.2,0,0.3,0,0.3,0h0.1
			c0,0,0-0.1,0.1-0.1c0-0.1,0.1-0.1,0.1-0.1l0,0c0,0.1,0.1,0.1,0.2,0.1c0,0,0,0,0.1,0c0.2,0,0.2,0,0.2-0.1s0-0.1-0.1-0.1
			s-0.2,0-0.2,0h-0.1c0-0.1,0-0.1,0.1-0.1c0,0,0.1,0,0.2,0s0.1-0.1,0.2-0.1h0.1l0,0l0,0c0.1,0,0.1-0.1,0.1-0.1l0,0l0,0
			c0,0,0,0,0.1,0h0.1c0.1,0,0.1-0.1,0.1-0.1c0-0.1,0-0.1,0.1-0.1s0.1,0,0.1,0s0.1,0,0.1,0.1s0,0.1,0.1,0.1s0.1,0,0.1-0.1
			s-0.1-0.1-0.1-0.1l-0.1-0.1c0-0.1-0.1-0.1-0.1-0.1l0,0c0,0,0.3-0.1,0.4-0.1s0.1,0,0.1-0.1s0-0.1,0.1-0.1s0.1,0,0.2,0
			c0,0,0.1,0,0.1-0.1c0,0,0,0-0.1,0h-0.1c-0.1,0-0.1,0-0.1,0c-0.1,0-0.1,0-0.1-0.1s0-0.1-0.1-0.1c0,0,0,0-0.1,0s-0.2,0-0.2,0h0.3
			h-0.1c-0.2,0-0.2,0-0.1,0s0.1,0,0.1-0.1s0-0.1,0.1-0.1h0.1h0.1l0.1-0.1c0.1,0,0.1,0,0.1,0l0,0c0.1,0,0.2,0.1,0.3,0.1
			s0.1-0.1,0.1-0.1c0-0.1,0-0.1,0.1-0.1h0.1c0-0.1,0-0.1,0.1-0.1c0.2,0,0.2,0,0.2-0.1s-0.1-0.1-0.1-0.1c0-0.1,0-0.1,0.1-0.1
			s0.2,0,0.3,0s0.2,0,0.2,0h0.1h0.1h0.1c0,0,0.1,0,0.1-0.1s0-0.1-0.1-0.1l-0.1-0.1h-0.1c0,0,0,0-0.1,0h-0.1l0,0c0-0.1,0-0.1,0.1-0.1
			s0.2,0,0.2-0.1c0,0,0-0.1-0.1-0.1c0,0-0.1,0-0.1,0.1s-0.1,0.1-0.1,0.1l0,0c-0.1,0-0.2,0-0.3,0s-0.1,0-0.2,0h-0.1
			c-0.1,0-0.1,0-0.1,0l0,0c0,0,0,0,0-0.1v-0.1c0-0.1,0-0.1,0.2-0.1s0.2,0,0.3-0.1c0.2-0.1,0.2-0.1,0.3-0.1h0.1v-0.1
			c0-0.1,0-0.1,0.1-0.1h0.1l0,0c0.1,0,0.1,0,0.1,0s0,0,0.1,0h0.1c0,0,0,0,0.1,0c0.2,0,0.3,0,0.3-0.1V481c0,0-0.3-0.1-0.5-0.1"/>
	</g>
</g>
<text transform="matrix(1 0 0 1 278.6411 493.8125)" class="st0 st1 st2">nobabjada</text>
</svg>
